<svg version="1.1" xmlns="http://www.w3.org/2000/svg"
 width="16" height="16" viewBox="0 0 64.000000 64.000000"
 preserveAspectRatio="xMidYMid meet">
<g transform="translate(0.000000,64.000000) scale(1.000000,-1.000000)"
fill="#e6edf3" stroke="none">
<path d="M28 59 c-8 -2 -16 -9 -18 -17 0 -1 -1 -3 -2 -3 -1 -1 -1 -4 0 -4 1
-1 2 -3 2 -8 0 -12 6 -20 16 -23 8 -2 19 0 22 5 2 3 0 4 -4 1 -10 -6 -23 -2
-28 7 -3 6 -3 6 3 5 5 0 5 0 8 3 3 2 4 5 4 6 0 2 1 3 2 3 1 0 2 -1 2 -2 0 -1
1 -4 2 -6 5 -8 19 -4 19 5 0 2 1 4 1 4 1 1 -5 15 -6 15 0 0 -1 -1 -2 -1 -1 -2
-1 -3 1 -5 l3 -4 -7 0 c-4 0 -7 0 -9 -1 -3 -2 -6 -2 -9 0 -1 1 -4 2 -8 2 -3 0
-6 0 -6 0 0 0 0 1 1 2 1 2 2 2 11 2 11 0 15 1 19 5 4 3 4 5 -1 7 -6 2 -11 3
-16 2z m-2 -22 c3 -1 3 -7 0 -10 -3 -3 -9 -3 -12 0 -3 3 -3 7 0 9 3 2 9 3 12
1z m25 0 c3 -2 3 -8 0 -10 -3 -3 -9 -2 -11 0 -3 3 -3 8 0 10 2 1 8 1 11 0z"/>
<path d="M20 33 c0 -2 1 -3 2 -3 2 0 3 2 2 4 0 0 -1 1 -2 1 -1 0 -2 -1 -2 -2z"/>
<path d="M41 34 c0 -1 0 -3 1 -3 1 -2 4 0 4 2 -1 2 -4 3 -5 1z"/>
<path d="M25 18 c-1 0 0 -2 1 -2 4 -3 16 -2 16 2 0 1 -1 1 -3 -1 -3 -1 -7 -1
-11 0 -2 1 -3 2 -3 1z"/>
</g>
</svg>
